<mxfile host="app.diagrams.net" modified="2023-08-19T09:06:28.572Z" agent="Mozilla/5.0 (Windows NT 10.0; Win64; x64) AppleWebKit/537.36 (KHTML, like Gecko) Chrome/116.0.0.0 Safari/537.36" etag="1phDapd62sxNWU4SdeH9" version="21.6.8" type="device">
  <diagram name="Page-1" id="_saXpO9nWjc21aWJwKIs">
    <mxGraphModel dx="794" dy="474" grid="1" gridSize="10" guides="1" tooltips="1" connect="1" arrows="1" fold="1" page="1" pageScale="1" pageWidth="850" pageHeight="1100" math="0" shadow="0">
      <root>
        <mxCell id="0" />
        <mxCell id="1" parent="0" />
        <mxCell id="P758UdWofN7Gv84_0tVh-2" value="Private Docker &lt;br&gt;Registry AlmaLinux9" style="sketch=0;outlineConnect=0;fontColor=#232F3E;gradientColor=none;strokeColor=#232F3E;fillColor=#ffffff;dashed=0;verticalLabelPosition=bottom;verticalAlign=top;align=center;html=1;fontSize=12;fontStyle=0;aspect=fixed;shape=mxgraph.aws4.resourceIcon;resIcon=mxgraph.aws4.registry;" vertex="1" parent="1">
          <mxGeometry x="310" y="160" width="60" height="60" as="geometry" />
        </mxCell>
        <mxCell id="P758UdWofN7Gv84_0tVh-4" value="" style="verticalLabelPosition=bottom;html=1;verticalAlign=top;align=center;strokeColor=none;fillColor=#00BEF2;shape=mxgraph.azure.virtual_machine;" vertex="1" parent="1">
          <mxGeometry x="490" y="240" width="50" height="40" as="geometry" />
        </mxCell>
        <mxCell id="P758UdWofN7Gv84_0tVh-5" value="" style="verticalLabelPosition=bottom;html=1;verticalAlign=top;align=center;strokeColor=none;fillColor=#00BEF2;shape=mxgraph.azure.virtual_machine;" vertex="1" parent="1">
          <mxGeometry x="490" y="100" width="50" height="40" as="geometry" />
        </mxCell>
        <mxCell id="P758UdWofN7Gv84_0tVh-6" value="" style="shape=image;html=1;verticalAlign=top;verticalLabelPosition=bottom;labelBackgroundColor=#ffffff;imageAspect=0;aspect=fixed;image=https://cdn1.iconfinder.com/data/icons/ionicons-fill-vol-2/512/logo-docker-128.png" vertex="1" parent="1">
          <mxGeometry x="140" y="95" width="50" height="50" as="geometry" />
        </mxCell>
        <mxCell id="P758UdWofN7Gv84_0tVh-8" value="" style="endArrow=classic;html=1;rounded=0;exitX=0.01;exitY=0.99;exitDx=0;exitDy=0;exitPerimeter=0;" edge="1" parent="1" source="P758UdWofN7Gv84_0tVh-5" target="P758UdWofN7Gv84_0tVh-2">
          <mxGeometry width="50" height="50" relative="1" as="geometry">
            <mxPoint x="360" y="270" as="sourcePoint" />
            <mxPoint x="350" y="220" as="targetPoint" />
          </mxGeometry>
        </mxCell>
        <mxCell id="P758UdWofN7Gv84_0tVh-9" value="" style="endArrow=classic;html=1;rounded=0;exitX=0;exitY=0.5;exitDx=0;exitDy=0;exitPerimeter=0;" edge="1" parent="1" source="P758UdWofN7Gv84_0tVh-4" target="P758UdWofN7Gv84_0tVh-2">
          <mxGeometry width="50" height="50" relative="1" as="geometry">
            <mxPoint x="360" y="270" as="sourcePoint" />
            <mxPoint x="410" y="220" as="targetPoint" />
          </mxGeometry>
        </mxCell>
        <mxCell id="P758UdWofN7Gv84_0tVh-10" value="" style="endArrow=classic;html=1;rounded=0;" edge="1" parent="1" target="P758UdWofN7Gv84_0tVh-2">
          <mxGeometry width="50" height="50" relative="1" as="geometry">
            <mxPoint x="165" y="130" as="sourcePoint" />
            <mxPoint x="410" y="220" as="targetPoint" />
          </mxGeometry>
        </mxCell>
        <mxCell id="P758UdWofN7Gv84_0tVh-12" value="" style="swimlane;startSize=0;" vertex="1" parent="1">
          <mxGeometry x="277.5" y="95" width="125" height="200" as="geometry" />
        </mxCell>
        <mxCell id="P758UdWofN7Gv84_0tVh-14" value="" style="swimlane;startSize=0;" vertex="1" parent="1">
          <mxGeometry x="452.5" y="95" width="125" height="200" as="geometry" />
        </mxCell>
        <mxCell id="P758UdWofN7Gv84_0tVh-22" value="Docker Host CentOS8" style="text;html=1;strokeColor=none;fillColor=none;align=center;verticalAlign=middle;whiteSpace=wrap;rounded=0;" vertex="1" parent="P758UdWofN7Gv84_0tVh-14">
          <mxGeometry x="23.75" y="45" width="77.5" height="30" as="geometry" />
        </mxCell>
        <mxCell id="P758UdWofN7Gv84_0tVh-25" value="Docker Host CentOS8" style="text;html=1;strokeColor=none;fillColor=none;align=center;verticalAlign=middle;whiteSpace=wrap;rounded=0;" vertex="1" parent="P758UdWofN7Gv84_0tVh-14">
          <mxGeometry x="23.75" y="115" width="77.5" height="30" as="geometry" />
        </mxCell>
        <mxCell id="P758UdWofN7Gv84_0tVh-16" value="Internet" style="ellipse;shape=cloud;whiteSpace=wrap;html=1;" vertex="1" parent="1">
          <mxGeometry x="100" y="200" width="120" height="80" as="geometry" />
        </mxCell>
        <mxCell id="P758UdWofN7Gv84_0tVh-17" value="" style="endArrow=classic;html=1;rounded=0;exitX=0.88;exitY=0.25;exitDx=0;exitDy=0;exitPerimeter=0;" edge="1" parent="1" source="P758UdWofN7Gv84_0tVh-16" target="P758UdWofN7Gv84_0tVh-2">
          <mxGeometry width="50" height="50" relative="1" as="geometry">
            <mxPoint x="360" y="270" as="sourcePoint" />
            <mxPoint x="410" y="220" as="targetPoint" />
          </mxGeometry>
        </mxCell>
        <mxCell id="P758UdWofN7Gv84_0tVh-18" value="DockerHub" style="text;html=1;strokeColor=none;fillColor=none;align=center;verticalAlign=middle;whiteSpace=wrap;rounded=0;" vertex="1" parent="1">
          <mxGeometry x="130" y="130" width="60" height="30" as="geometry" />
        </mxCell>
        <mxCell id="P758UdWofN7Gv84_0tVh-19" value="Internet Zone" style="text;html=1;strokeColor=none;fillColor=none;align=center;verticalAlign=middle;whiteSpace=wrap;rounded=0;" vertex="1" parent="1">
          <mxGeometry x="300" y="290" width="80" height="30" as="geometry" />
        </mxCell>
        <mxCell id="P758UdWofN7Gv84_0tVh-20" value="Private Zone" style="text;html=1;align=center;verticalAlign=middle;resizable=0;points=[];autosize=1;strokeColor=none;fillColor=none;" vertex="1" parent="1">
          <mxGeometry x="470" y="290" width="90" height="30" as="geometry" />
        </mxCell>
        <mxCell id="P758UdWofN7Gv84_0tVh-21" value="&lt;b&gt;&lt;font style=&quot;font-size: 14px;&quot;&gt;Private Docker Registry in AlmaLinux 9&lt;/font&gt;&lt;/b&gt;" style="text;html=1;strokeColor=none;fillColor=none;align=center;verticalAlign=middle;whiteSpace=wrap;rounded=0;" vertex="1" parent="1">
          <mxGeometry x="240" y="330" width="267.5" height="30" as="geometry" />
        </mxCell>
        <mxCell id="P758UdWofN7Gv84_0tVh-26" value="https" style="text;html=1;strokeColor=none;fillColor=none;align=center;verticalAlign=middle;whiteSpace=wrap;rounded=0;rotation=-20;" vertex="1" parent="1">
          <mxGeometry x="395" y="140" width="60" height="30" as="geometry" />
        </mxCell>
        <mxCell id="P758UdWofN7Gv84_0tVh-27" value="https" style="text;html=1;strokeColor=none;fillColor=none;align=center;verticalAlign=middle;whiteSpace=wrap;rounded=0;rotation=30;" vertex="1" parent="1">
          <mxGeometry x="402.5" y="210" width="60" height="30" as="geometry" />
        </mxCell>
      </root>
    </mxGraphModel>
  </diagram>
</mxfile>
